PathFileType	4	(X/Y/Z)	C:\Users\Basilio\Documents\Thesis Gigler\squatting_fais\c3dfiles\077\SJ_pre1\markers_experimental.trc
DataRate	CameraRate	NumFrames	NumMarkers	Units	OrigDataRate	OrigDataStartFrame	OrigNumFrames
200.000000	200.000000	4	60	mm	200.000000	195	1561
Frame#	Time	FHD			LBHD			RBHD			C7			T10			CLAV			LSHO			LUUPA			LMUPA			LDUPA			LLEP			LMEP			LRAD			LUL			LRFIN			RSHO			RUPA1			RMUPA			RDUPA			RLEP			RMEP			RRAD			RUL			RUFIN			LASI			RASI			USACR			LSACR			RSACR			LTHI1			LTHI2			LTHI3			LTHI4			LLFC			LMFC			LTIB1			LTIB2			LTIB3			LTIB4			LLMAL			LHEE			LMT1			LMT2			LMT5			RTHI			RTHI2			RTHI3			RTHI4			RLFC			RMFC			RTIB1			RTIB2			RTIB3			RTIB4			RLMAL			RMMAL			RHEE			RMT1			RMT2			RMT5			
		X1	Y1	Z1	X2	Y2	Z2	X3	Y3	Z3	X4	Y4	Z4	X5	Y5	Z5	X6	Y6	Z6	X7	Y7	Z7	X8	Y8	Z8	X9	Y9	Z9	X10	Y10	Z10	X11	Y11	Z11	X12	Y12	Z12	X13	Y13	Z13	X14	Y14	Z14	X15	Y15	Z15	X16	Y16	Z16	X17	Y17	Z17	X18	Y18	Z18	X19	Y19	Z19	X20	Y20	Z20	X21	Y21	Z21	X22	Y22	Z22	X23	Y23	Z23	X24	Y24	Z24	X25	Y25	Z25	X26	Y26	Z26	X27	Y27	Z27	X28	Y28	Z28	X29	Y29	Z29	X30	Y30	Z30	X31	Y31	Z31	X32	Y32	Z32	X33	Y33	Z33	X34	Y34	Z34	X35	Y35	Z35	X36	Y36	Z36	X37	Y37	Z37	X38	Y38	Z38	X39	Y39	Z39	X40	Y40	Z40	X41	Y41	Z41	X42	Y42	Z42	X43	Y43	Z43	X44	Y44	Z44	X45	Y45	Z45	X46	Y46	Z46	X47	Y47	Z47	X48	Y48	Z48	X49	Y49	Z49	X50	Y50	Z50	X51	Y51	Z51	X52	Y52	Z52	X53	Y53	Z53	X54	Y54	Z54	X55	Y55	Z55	X56	Y56	Z56	X57	Y57	Z57	X58	Y58	Z58	X59	Y59	Z59	X60	Y60	Z60	

196	0.975	-155.8584747314453	1799.61669921875	-919.5555419921877	-313.5635681152344	1727.035522460938	-997.7288208007815	-326.3556518554688	1721.680053710938	-852.903503417969	-398.6260986328126	1591.987915039063	-932.4131469726565	-448.2841186523439	1252.718139648438	-923.7341308593752	-240.8188781738282	1519.015869140625	-928.5953369140627	-304.3635253906251	1554.379760742188	-1120.440673828125	-365.0038757324219	1415.030029296875	-1281.994873046875	-333.6169738769532	1375.534057617188	-1284.609619140625	-379.3884887695313	1363.212158203125	-1323.887329101563	-378.5111999511719	1300.68505859375	-1355.966674804688	-455.9730834960939	1284.017822265625	-1319.928833007813	-358.3067932128907	1071.01318359375	-1154.416137695313	-306.6560974121094	1059.2060546875	-1103.238159179688	-317.2359313964844	1028.425048828125	-1209.424560546875	-283.3102722167969	1553.396728515625	-738.1030883789064	-366.9021301269532	1427.077758789063	-567.2712402343751	-340.4103088378907	1385.078491210938	-564.1564331054689	-384.218231201172	1373.469970703125	-524.4295654296876	-388.4678955078126	1308.843139648438	-494.6491699218751	-468.3304443359376	1293.805297851563	-530.6325683593751	-373.6327209472657	1072.7626953125	-673.8809814453126	-315.1254577636719	1046.094604492188	-626.9956054687501	-318.0785522460938	1074.972900390625	-723.0573120117189	-265.2568054199219	1037.736083984375	-1059.349487304688	-267.8637390136719	1052.3701171875	-782.3757934570315	-467.0068664550782	1141.603271484375	-917.793640136719	-473.9981994628907	1111.7001953125	-946.5500488281252	-477.9154357910157	1110.300170898438	-890.9641113281252	-361.8218078613282	843.6069946289065	-1140.620727539063	-335.7095336914063	764.5953369140626	-1154.306762695313	-287.1145629882813	764.4692993164064	-1151.637329101563	-365.0883483886719	711.6439208984376	-1143.38232421875	-336.3196411132813	564.8035278320314	-1146.034912109375	-312.0874633789063	519.0630493164064	-1022.664367675781	-305.8191223144532	333.2563781738282	-1128.067138671875	-348.4660339355469	303.9206848144532	-1202.365844726563	-313.4435729980469	294.3375854492188	-1173.316040039063	-317.9807434082032	210.0715789794922	-1158.530029296875	-386.5794067382814	101.3753051757813	-1215.951293945313	-431.3213195800782	45.85056304931641	-1165.830322265625	-214.5959930419922	59.31397247314455	-1173.740600585938	-218.3612213134766	61.44956588745119	-1216.774536132813	-344.3172912597657	101.6716079711914	-1134.970581054688	-377.3257751464844	734.4060668945314	-685.9938354492189	-338.8249206542969	680.2982177734376	-671.9180908203126	-304.8555908203126	681.0229492187501	-674.5299072265626	-363.2330627441407	602.8434448242189	-682.9932250976564	-356.5960388183594	535.9219360351564	-674.1406250000001	-305.3136596679688	504.0092163085939	-789.3106079101565	-309.7053527832032	398.5958862304689	-663.8118286132814	-380.5177917480469	327.3238830566407	-628.8079223632814	-335.9122924804688	318.4420166015626	-642.6481323242189	-327.9218444824219	269.0679931640626	-674.8989868164064	-406.922821044922	98.62223052978518	-620.7745361328126	-367.3453674316407	93.84375000000001	-705.3453979492189	-459.7757263183595	44.76865386962891	-676.0797119140626	-235.6569976806641	60.21738052368165	-633.6243286132814	-245.9663848876954	61.60203170776369	-597.7930908203126	-266.3129577636719	42.76960372924805	-550.4813232421876	
197	0.98	-157.1602630615235	1800.241088867188	-919.9209594726565	-314.3136596679688	1727.034912109375	-997.9270019531252	-327.1414794921876	1721.7646484375	-853.0396118164065	-398.9173278808595	1591.862670898438	-932.586364746094	-448.2463378906251	1252.75537109375	-924.0025634765627	-240.9357147216797	1519.096435546875	-928.632019042969	-304.4378051757813	1554.398193359375	-1120.562377929688	-364.8661499023438	1415.046264648438	-1282.2080078125	-333.3139953613282	1375.55859375	-1284.774658203125	-379.0056762695313	1363.160400390625	-1324.168701171875	-377.9903259277344	1300.695190429688	-1356.183227539063	-455.6118469238282	1284.04248046875	-1320.18701171875	-358.1535339355469	1071.01611328125	-1154.619262695313	-306.5665893554688	1059.157348632813	-1103.369506835938	-316.8661804199219	1028.4375	-1209.542236328125	-283.5423889160157	1553.408203125	-738.2533569335939	-367.1089172363282	1427.099609375	-567.3666992187501	-340.6016235351563	1385.089477539063	-564.3413696289064	-384.3878784179689	1373.455078125	-524.5485839843751	-388.6482543945314	1308.826049804688	-494.7608032226564	-468.4859619140626	1293.785400390625	-530.7339477539064	-373.7324523925782	1072.798706054688	-674.1140136718751	-315.3256225585938	1046.05615234375	-627.1629028320314	-318.2100524902344	1075.038330078125	-723.2421875000001	-265.1524353027344	1037.776000976563	-1059.389282226563	-268.0797729492188	1052.474975585938	-782.573181152344	-467.0749816894532	1141.602783203125	-918.0898437500002	-473.8869628906251	1111.631713867188	-946.8501586914065	-477.916961669922	1110.253540039063	-891.2212524414065	-361.9029846191407	843.5737915039065	-1140.820678710938	-335.6893920898438	764.6730957031251	-1154.423706054688	-286.4601135253907	764.3116455078126	-1151.472412109375	-365.0408020019532	711.6464843750001	-1143.493408203125	-336.2764892578126	564.6912841796876	-1146.16552734375	-312.2325134277344	519.0954589843751	-1022.732299804688	-305.7329711914063	333.1825866699219	-1128.067138671875	-348.5257873535157	303.8722839355469	-1202.389282226563	-313.5545959472657	294.3018493652344	-1173.329223632813	-318.0358276367188	210.0746154785157	-1158.480224609375	-386.0021362304689	101.1771316528321	-1215.96533203125	-431.2979431152345	45.82320785522462	-1165.842163085938	-214.588363647461	59.33024215698244	-1173.748168945313	-218.4623413085938	61.4676856994629	-1216.850463867188	-344.2953186035157	101.6953735351563	-1134.969360351563	-377.4641723632813	734.3824462890626	-686.1354980468751	-338.9273681640626	680.3034667968751	-671.9692993164064	-304.9710388183594	681.0780639648439	-674.6050415039064	-363.3391723632813	602.8389282226564	-683.1086425781251	-356.7178344726563	535.8901977539064	-674.2326049804689	-305.4900207519532	504.1134338378907	-789.4517822265627	-309.7661743164063	398.6244201660157	-663.8197631835939	-380.6011047363282	327.3446350097657	-628.9387817382814	-336.0092773437501	318.4732360839844	-642.6451416015626	-328.0313110351563	269.1402282714844	-674.8984375000001	-406.9597778320314	98.64579772949222	-620.7524414062501	-367.3039550781251	93.78927612304689	-705.3287963867189	-459.7896118164064	44.75012207031251	-676.0720214843751	-235.6406860351563	60.27050018310548	-633.5996093750001	-245.9823303222657	61.6154022216797	-597.7664184570314	-266.3176879882813	42.75091552734376	-550.4645996093751	
198	0.985	-157.8931732177735	1800.666748046875	-919.9927978515627	-315.0644226074219	1726.394165039063	-997.848815917969	-328.3424987792969	1720.979248046875	-853.3342895507815	-399.1106872558595	1591.7099609375	-932.7466430664065	-448.2529296875001	1252.7890625	-924.208190917969	-240.9907836914063	1519.17822265625	-928.6824340820315	-304.4589538574219	1554.482788085938	-1120.650390625	-364.5839843750001	1414.998779296875	-1282.316528320313	-333.0887145996094	1375.606567382813	-1284.946411132813	-378.5267333984376	1363.158935546875	-1324.36572265625	-377.6894226074219	1300.66796875	-1356.43994140625	-455.4013061523439	1284.022216796875	-1320.4365234375	-357.9538269042969	1071.015380859375	-1154.781616210938	-306.4383544921876	1059.148681640625	-1103.478271484375	-316.6129760742188	1028.344970703125	-1209.663330078125	-283.7854919433594	1553.46826171875	-738.3785400390626	-367.2817382812501	1427.139770507813	-567.4816894531251	-340.7811584472657	1385.180419921875	-564.4137573242189	-384.5642700195314	1373.4287109375	-524.6737060546876	-388.8471069335939	1308.84716796875	-494.9819335937501	-468.5979309082032	1293.857299804688	-530.9064331054689	-373.7792968750001	1072.788940429688	-674.3272094726564	-315.5111694335938	1046.0400390625	-627.3533325195314	-318.3382873535157	1075.01123046875	-723.3803100585939	-265.0362548828126	1037.79052734375	-1059.448364257813	-268.2810974121094	1052.542236328125	-782.7546386718752	-467.0561523437501	1141.60205078125	-918.4085083007815	-473.9214782714845	1111.648559570313	-947.133239746094	-477.9823303222657	1110.423461914063	-891.496520996094	-361.6615905761719	843.5681762695315	-1140.98095703125	-335.6399536132813	764.6092529296876	-1154.531005859375	-286.4626464843751	764.2661132812501	-1151.563842773438	-365.0752868652344	711.7398071289064	-1143.652465820313	-336.3874206542969	564.7528076171876	-1146.274169921875	-312.3378906250001	519.1068115234376	-1022.800537109375	-305.9861145019532	333.2521362304688	-1128.2060546875	-348.5157165527344	303.8692321777344	-1202.39794921875	-313.5755920410157	294.3500366210938	-1173.310180664063	-318.0377197265626	210.0906219482422	-1158.463623046875	-386.0589294433595	101.1620559692383	-1215.905883789063	-431.3167724609376	45.79916763305665	-1165.884399414063	-214.6469726562501	59.33028793334962	-1173.762939453125	-218.4618682861329	61.5291213989258	-1216.846557617188	-344.2966613769532	101.7018737792969	-1134.969116210938	-377.5966796875001	734.3774414062501	-686.2317504882814	-339.0769042968751	680.2151489257814	-672.0569458007814	-305.0907592773438	681.1015014648439	-674.6686401367189	-363.4620971679688	602.7582397460939	-683.2372436523439	-356.8140563964844	535.9125976562501	-674.3472290039064	-305.3917541503907	503.9216308593751	-789.4431762695315	-309.8774108886719	398.6707763671876	-663.9153442382814	-380.7301330566407	327.4211120605469	-628.9202880859376	-336.2266235351563	318.4015808105469	-642.7778930664064	-328.0496215820313	269.1008300781251	-674.9362182617189	-406.969207763672	98.59583282470706	-620.7342529296876	-367.3416137695313	93.84477996826173	-705.3616943359376	-459.8050537109376	44.78128814697266	-676.0912475585939	-235.6185760498047	60.28674697875978	-633.6231689453126	-245.9803009033204	61.66812133789064	-597.7647705078126	-266.3796691894532	42.80532836914063	-550.4876098632814	
199	0.99	-159.3303985595703	1801.679809570313	-920.3876953125002	-315.8424072265626	1726.994140625	-998.0806274414065	-329.1661682128907	1720.792724609375	-853.3581542968752	-399.3665466308595	1591.555419921875	-932.8635864257815	-448.3227844238282	1252.75732421875	-924.445739746094	-241.083724975586	1519.248168945313	-928.7485961914065	-304.4654541015626	1554.537353515625	-1120.71875	-364.2698974609376	1414.961791992188	-1282.422119140625	-332.8021850585938	1375.664672851563	-1285.089233398438	-378.2137451171876	1363.180297851563	-1324.519775390625	-377.5044250488282	1300.733276367188	-1356.65966796875	-455.061004638672	1284.078979492188	-1320.588012695313	-357.6671447753907	1070.953491210938	-1154.970825195313	-306.3659973144532	1059.153686523438	-1103.553833007813	-316.4147338867188	1028.3935546875	-1209.842163085938	-284.0287170410157	1553.5302734375	-738.4577026367189	-367.4730529785157	1427.187377929688	-567.5675048828126	-340.9660034179688	1385.19189453125	-564.5720214843751	-384.7811584472657	1373.373168945313	-524.7872924804689	-389.0122680664064	1308.842895507813	-495.091766357422	-468.7703857421876	1293.87939453125	-530.9771118164064	-373.8675537109376	1072.780029296875	-674.5333862304689	-315.6971740722657	1046.095458984375	-627.4976196289064	-318.4754333496094	1075.07861328125	-723.5711059570314	-265.1105346679688	1037.820922851563	-1059.470458984375	-268.4049682617188	1052.480224609375	-782.9143676757815	-467.0588989257814	1141.602416992188	-918.6573486328127	-474.0101623535157	1111.69873046875	-947.428161621094	-478.0130615234376	1110.521728515625	-891.8260498046877	-361.7398681640626	843.7002563476565	-1141.204833984375	-335.6333923339844	764.6343383789064	-1154.652709960938	-287.0903625488282	764.4288330078126	-1151.85107421875	-364.8592529296876	711.6329956054689	-1143.698364257813	-336.5750427246094	564.8354492187501	-1146.317016601563	-312.4541320800782	519.1128540039064	-1022.799987792969	-305.9902648925782	333.2953796386719	-1128.171142578125	-348.5424194335938	303.8542480468751	-1202.468994140625	-313.5738220214844	294.3865661621094	-1173.357055664063	-318.0716247558594	210.1042785644532	-1158.48193359375	-386.0292968750001	101.1803665161133	-1215.928100585938	-431.3320922851564	45.85754394531251	-1165.871337890625	-214.6658630371094	59.29515075683595	-1173.75634765625	-218.3771667480469	61.4738235473633	-1216.797485351563	-344.2913818359376	101.6868133544922	-1134.980102539063	-377.7468261718751	734.3914794921876	-686.3472290039064	-339.2138366699219	680.1693115234376	-672.1304931640626	-305.2567138671876	681.1406860351564	-674.7697143554689	-363.5830993652344	602.7360839843751	-683.3897094726564	-356.9175720214844	535.9330444335939	-674.4202270507814	-306.5279846191407	504.2404785156251	-789.9168090820315	-309.9447631835938	398.7526245117189	-663.9573364257814	-380.9266967773438	327.5471496582032	-628.9783935546876	-336.2746887207032	318.4373474121094	-642.7440795898439	-328.1013183593751	269.0829467773438	-674.8963012695314	-407.0186462402345	98.60966491699222	-620.7958374023439	-367.4143066406251	93.8343963623047	-705.4140014648439	-459.8146362304689	44.81705474853516	-676.1210937500001	-235.6448211669922	60.3030471801758	-633.6389770507814	-245.9961700439454	61.66085815429689	-597.7562255859376	-266.3178405761719	42.80139923095704	-550.4965209960939	
